<svg xmlns="http://www.w3.org/2000/svg" version="1.1" xmlns:xlink="http://www.w3.org/1999/xlink" xmlns:svgjs="http://svgjs.dev/svgjs" width="1500" height="268" viewBox="0 0 1500 268"><g transform="matrix(1,0,0,1,-0.9090909090909918,0.037918615878623996)"><svg viewBox="0 0 396 71" data-background-color="#ffffff" preserveAspectRatio="xMidYMid meet" height="268" width="1500" xmlns="http://www.w3.org/2000/svg" xmlns:xlink="http://www.w3.org/1999/xlink"><g id="tight-bounds" transform="matrix(1,0,0,1,0.2400000000000091,-0.010045603460383745)"><svg viewBox="0 0 395.52 71.02009120692077" height="71.02009120692077" width="395.52"><g><svg viewBox="0 0 397.4975999999999 71.37519166295536" height="71.02009120692077" width="395.52"><g><rect width="397.4975999999999" height="2.186127850826323" x="0" y="39.22466764800001" fill="#61777f" opacity="1" stroke-width="0" stroke="transparent" fill-opacity="1" class="rect-qz-0" data-fill-palette-color="secondary" rx="1%" id="qz-0" data-palette-color="#61777f"></rect></g><g transform="matrix(1,0,0,1,0.9887999999999693,47.13364327585859)"><svg viewBox="0 0 395.52 24.241548387096778" height="24.241548387096778" width="395.52"><g id="textblocktransform"><svg viewBox="0 0 395.52 24.241548387096778" height="24.241548387096778" width="395.52" id="textblock"><g><svg viewBox="0 0 395.52 24.241548387096778" height="24.241548387096778" width="395.52"><g transform="matrix(1,0,0,1,0,0)"><svg width="395.52" viewBox="3.1 -39.55 821.42 50.349999999999994" height="24.241548387096778" data-palette-color="#000000"><path d="M22.55 0.5L22.55 0.5Q18.5 0.5 14.98-1.05 11.45-2.6 8.78-5.38 6.1-8.15 4.6-11.78 3.1-15.4 3.1-19.55L3.1-19.55Q3.1-23.65 4.58-27.28 6.05-30.9 8.72-33.65 11.4-36.4 14.93-37.98 18.45-39.55 22.55-39.55L22.55-39.55Q26.15-39.55 29.1-38.5 32.05-37.45 34.8-35.15L34.8-35.15Q35.25-34.8 35.33-34.33 35.4-33.85 35.2-33.43 35-33 34.6-32.8L34.6-32.8Q34.5-32.4 34.1-32.2 33.7-32 33.18-32.05 32.65-32.1 32.15-32.5L32.15-32.5Q30.2-34.2 27.9-35.02 25.6-35.85 22.55-35.85L22.55-35.85Q19.3-35.85 16.48-34.55 13.65-33.25 11.5-31 9.35-28.75 8.13-25.8 6.9-22.85 6.9-19.55L6.9-19.55Q6.9-16.15 8.13-13.2 9.35-10.25 11.5-8 13.65-5.75 16.48-4.48 19.3-3.2 22.55-3.2L22.55-3.2Q25.3-3.2 27.75-4.1 30.2-5 32.4-6.7L32.4-6.7Q33-7.2 33.68-7.1 34.35-7 34.85-6.5 35.35-6 35.35-5.2L35.35-5.2Q35.35-4.8 35.23-4.48 35.1-4.15 34.8-3.8L34.8-3.8Q32.25-1.45 29.1-0.48 25.95 0.5 22.55 0.5ZM46.85-16.85L44.65-16.85Q44.8-19.95 46.27-22.4 47.75-24.85 50.12-26.25 52.5-27.65 55.4-27.65L55.4-27.65Q57.7-27.65 58.95-27 60.2-26.35 59.9-25.1L59.9-25.1Q59.7-24.35 59.22-24.1 58.75-23.85 58.07-23.9 57.4-23.95 56.55-24L56.55-24Q53.75-24.25 51.57-23.43 49.4-22.6 48.12-20.9 46.85-19.2 46.85-16.85L46.85-16.85ZM44.95 0L44.95 0Q44.05 0 43.55-0.5 43.05-1 43.05-1.9L43.05-1.9 43.05-25.45Q43.05-26.35 43.55-26.85 44.05-27.35 44.95-27.35L44.95-27.35Q45.85-27.35 46.35-26.85 46.85-26.35 46.85-25.45L46.85-25.45 46.85-1.9Q46.85-1 46.35-0.5 45.85 0 44.95 0ZM76 0.25L76 0.25Q72.15 0.25 69.1-1.58 66.05-3.4 64.27-6.55 62.5-9.7 62.5-13.65L62.5-13.65Q62.5-17.65 64.32-20.8 66.15-23.95 69.3-25.78 72.45-27.6 76.4-27.6L76.4-27.6Q80.35-27.6 83.47-25.78 86.6-23.95 88.42-20.8 90.25-17.65 90.3-13.65L90.3-13.65 88.75-12.45Q88.75-8.85 87.07-5.98 85.4-3.1 82.52-1.43 79.65 0.25 76 0.25ZM76.4-3.25L76.4-3.25Q79.3-3.25 81.57-4.6 83.85-5.95 85.17-8.33 86.5-10.7 86.5-13.65L86.5-13.65Q86.5-16.65 85.17-19 83.85-21.35 81.57-22.73 79.3-24.1 76.4-24.1L76.4-24.1Q73.55-24.1 71.25-22.73 68.95-21.35 67.6-19 66.25-16.65 66.25-13.65L66.25-13.65Q66.25-10.7 67.6-8.33 68.95-5.95 71.25-4.6 73.55-3.25 76.4-3.25ZM88.35 0L88.35 0Q87.5 0 86.95-0.53 86.4-1.05 86.4-1.9L86.4-1.9 86.4-10.45 87.35-14.4 90.3-13.65 90.3-1.9Q90.3-1.05 89.75-0.53 89.2 0 88.35 0ZM101.19 0L101.19 0Q100.44 0 99.89-0.53 99.34-1.05 99.34-1.95L99.34-1.95 99.34-27.3Q99.34-30.8 100.54-33.45 101.74-36.1 104.09-37.58 106.44-39.05 109.84-39.05L109.84-39.05Q110.69-39.05 111.24-38.55 111.79-38.05 111.79-37.3L111.79-37.3Q111.79-36.55 111.24-36.05 110.69-35.55 109.84-35.55L109.84-35.55Q107.59-35.55 106.12-34.52 104.64-33.5 103.92-31.68 103.19-29.85 103.19-27.5L103.19-27.5 103.19-1.95Q103.19-1.05 102.67-0.53 102.14 0 101.19 0ZM109.19-23L96.14-23Q95.34-23 94.87-23.48 94.39-23.95 94.39-24.65L94.39-24.65Q94.39-25.4 94.87-25.88 95.34-26.35 96.14-26.35L96.14-26.35 109.19-26.35Q109.99-26.35 110.47-25.88 110.94-25.4 110.94-24.65L110.94-24.65Q110.94-23.95 110.47-23.48 109.99-23 109.19-23L109.19-23ZM127.84 0L126.79 0Q124.14 0 122.07-1.25 119.99-2.5 118.79-4.67 117.59-6.85 117.59-9.65L117.59-9.65 117.59-34.1Q117.59-34.95 118.12-35.5 118.64-36.05 119.49-36.05L119.49-36.05Q120.34-36.05 120.89-35.5 121.44-34.95 121.44-34.1L121.44-34.1 121.44-9.65Q121.44-7.1 122.94-5.48 124.44-3.85 126.79-3.85L126.79-3.85 128.14-3.85Q128.94-3.85 129.44-3.3 129.94-2.75 129.94-1.9L129.94-1.9Q129.94-1.05 129.34-0.53 128.74 0 127.84 0L127.84 0ZM127.09-23L114.34-23Q113.59-23 113.09-23.48 112.59-23.95 112.59-24.65L112.59-24.65Q112.59-25.4 113.09-25.88 113.59-26.35 114.34-26.35L114.34-26.35 127.09-26.35Q127.84-26.35 128.34-25.88 128.84-25.4 128.84-24.65L128.84-24.65Q128.84-23.95 128.34-23.48 127.84-23 127.09-23L127.09-23ZM138.94 0L138.94 0Q138.04 0 137.51-0.53 136.99-1.05 136.99-1.95L136.99-1.95 136.99-25.4Q136.99-26.3 137.51-26.83 138.04-27.35 138.94-27.35L138.94-27.35Q139.79-27.35 140.31-26.83 140.84-26.3 140.84-25.4L140.84-25.4 140.84-1.95Q140.84-1.05 140.31-0.53 139.79 0 138.94 0ZM138.89-32.55L138.89-32.55Q137.79-32.55 136.99-33.35 136.19-34.15 136.19-35.3L136.19-35.3Q136.19-36.55 137.01-37.27 137.84-38 138.94-38L138.94-38Q139.99-38 140.81-37.27 141.64-36.55 141.64-35.3L141.64-35.3Q141.64-34.15 140.84-33.35 140.04-32.55 138.89-32.55ZM174.09 0L174.09 0Q173.24 0 172.69-0.55 172.14-1.1 172.14-1.9L172.14-1.9 172.14-14.9Q172.14-18 170.96-20 169.79-22 167.76-23 165.74-24 163.19-24L163.19-24Q160.74-24 158.76-23.05 156.79-22.1 155.64-20.45 154.49-18.8 154.49-16.7L154.49-16.7 151.74-16.7Q151.84-19.85 153.44-22.33 155.04-24.8 157.69-26.23 160.34-27.65 163.59-27.65L163.59-27.65Q167.14-27.65 169.94-26.18 172.74-24.7 174.36-21.85 175.99-19 175.99-14.9L175.99-14.9 175.99-1.9Q175.99-1.1 175.44-0.55 174.89 0 174.09 0ZM152.59 0L152.59 0Q151.69 0 151.16-0.53 150.64-1.05 150.64-1.9L150.64-1.9 150.64-25.4Q150.64-26.3 151.16-26.83 151.69-27.35 152.59-27.35L152.59-27.35Q153.44-27.35 153.96-26.83 154.49-26.3 154.49-25.4L154.49-25.4 154.49-1.9Q154.49-1.05 153.96-0.53 153.44 0 152.59 0ZM196.53 0.25L196.53 0.25Q192.58 0.25 189.53-1.53 186.48-3.3 184.76-6.45 183.03-9.6 183.03-13.65L183.03-13.65Q183.03-17.75 184.83-20.9 186.63-24.05 189.78-25.83 192.93-27.6 196.93-27.6L196.93-27.6Q200.98-27.6 204.11-25.83 207.23-24.05 209.01-20.9 210.78-17.75 210.83-13.65L210.83-13.65 208.58-12.45Q208.58-8.75 207.03-5.88 205.48-3 202.76-1.38 200.03 0.25 196.53 0.25ZM197.03 10.8L197.03 10.8Q193.08 10.8 190.08 9.33 187.08 7.85 185.13 5.3L185.13 5.3Q184.58 4.7 184.66 4 184.73 3.3 185.38 2.85L185.38 2.85Q186.03 2.4 186.83 2.55 187.63 2.7 188.08 3.3L188.08 3.3Q189.53 5.1 191.81 6.2 194.08 7.3 197.08 7.3L197.08 7.3Q199.88 7.3 202.13 5.95 204.38 4.6 205.71 2.15 207.03-0.3 207.03-3.6L207.03-3.6 207.03-11.2 208.48-14.1 210.83-13.65 210.83-3.45Q210.83 0.6 209.03 3.83 207.23 7.05 204.13 8.93 201.03 10.8 197.03 10.8ZM196.93-3.25L196.93-3.25Q199.88-3.25 202.16-4.58 204.43-5.9 205.73-8.25 207.03-10.6 207.03-13.65L207.03-13.65Q207.03-16.7 205.73-19.07 204.43-21.45 202.16-22.78 199.88-24.1 196.93-24.1L196.93-24.1Q193.98-24.1 191.68-22.78 189.38-21.45 188.08-19.07 186.78-16.7 186.78-13.65L186.78-13.65Q186.78-10.6 188.08-8.25 189.38-5.9 191.68-4.58 193.98-3.25 196.93-3.25ZM251.03 0.5L251.03 0.5Q246.98 0.5 243.45-1.05 239.93-2.6 237.25-5.38 234.58-8.15 233.08-11.78 231.58-15.4 231.58-19.55L231.58-19.55Q231.58-23.65 233.05-27.28 234.53-30.9 237.2-33.65 239.88-36.4 243.4-37.98 246.93-39.55 251.03-39.55L251.03-39.55Q254.63-39.55 257.58-38.5 260.53-37.45 263.28-35.15L263.28-35.15Q263.73-34.8 263.8-34.33 263.88-33.85 263.68-33.43 263.48-33 263.08-32.8L263.08-32.8Q262.98-32.4 262.58-32.2 262.18-32 261.65-32.05 261.13-32.1 260.63-32.5L260.63-32.5Q258.68-34.2 256.38-35.02 254.08-35.85 251.03-35.85L251.03-35.85Q247.78-35.85 244.95-34.55 242.13-33.25 239.98-31 237.83-28.75 236.6-25.8 235.38-22.85 235.38-19.55L235.38-19.55Q235.38-16.15 236.6-13.2 237.83-10.25 239.98-8 242.13-5.75 244.95-4.48 247.78-3.2 251.03-3.2L251.03-3.2Q253.78-3.2 256.23-4.1 258.68-5 260.88-6.7L260.88-6.7Q261.48-7.2 262.15-7.1 262.83-7 263.33-6.5 263.83-6 263.83-5.2L263.83-5.2Q263.83-4.8 263.7-4.48 263.58-4.15 263.28-3.8L263.28-3.8Q260.73-1.45 257.58-0.48 254.43 0.5 251.03 0.5ZM281.98 0.25L281.98 0.25Q277.98 0.25 274.83-1.55 271.68-3.35 269.88-6.5 268.08-9.65 268.08-13.65L268.08-13.65Q268.08-17.7 269.88-20.85 271.68-24 274.83-25.8 277.98-27.6 281.98-27.6L281.98-27.6Q285.98-27.6 289.1-25.8 292.23-24 294.03-20.85 295.83-17.7 295.88-13.65L295.88-13.65Q295.88-9.65 294.05-6.5 292.23-3.35 289.1-1.55 285.98 0.25 281.98 0.25ZM281.98-3.25L281.98-3.25Q284.88-3.25 287.18-4.6 289.48-5.95 290.78-8.3 292.08-10.65 292.08-13.65L292.08-13.65Q292.08-16.65 290.78-19.03 289.48-21.4 287.18-22.75 284.88-24.1 281.98-24.1L281.98-24.1Q279.08-24.1 276.78-22.75 274.48-21.4 273.15-19.03 271.83-16.65 271.83-13.65L271.83-13.65Q271.83-10.65 273.15-8.3 274.48-5.95 276.78-4.6 279.08-3.25 281.98-3.25ZM315.82 0.25L315.82 0.25Q311.87 0.25 308.72-1.58 305.57-3.4 303.75-6.55 301.92-9.7 301.92-13.7L301.92-13.7Q301.92-17.65 303.7-20.8 305.47-23.95 308.52-25.78 311.57-27.6 315.42-27.6L315.42-27.6Q318.77-27.6 321.47-26.18 324.17-24.75 325.82-22.4L325.82-22.4 325.82-37.1Q325.82-38 326.37-38.53 326.92-39.05 327.77-39.05L327.77-39.05Q328.62-39.05 329.17-38.53 329.72-38 329.72-37.1L329.72-37.1 329.72-13.5Q329.62-9.6 327.8-6.48 325.97-3.35 322.85-1.55 319.72 0.25 315.82 0.25ZM315.82-3.25L315.82-3.25Q318.72-3.25 321-4.63 323.27-6 324.6-8.35 325.92-10.7 325.92-13.7L325.92-13.7Q325.92-16.65 324.6-19.03 323.27-21.4 321-22.75 318.72-24.1 315.82-24.1L315.82-24.1Q312.97-24.1 310.67-22.75 308.37-21.4 307.02-19.03 305.67-16.65 305.67-13.7L305.67-13.7Q305.67-10.7 307.02-8.35 308.37-6 310.67-4.63 312.97-3.25 315.82-3.25ZM351.12 0.25L351.12 0.25Q347.07 0.25 343.95-1.53 340.82-3.3 339.05-6.45 337.27-9.6 337.27-13.65L337.27-13.65Q337.27-17.75 338.95-20.88 340.62-24 343.57-25.8 346.52-27.6 350.37-27.6L350.37-27.6Q354.17-27.6 357-25.88 359.82-24.15 361.37-21.1 362.92-18.05 362.92-14.15L362.92-14.15Q362.92-13.35 362.42-12.88 361.92-12.4 361.12-12.4L361.12-12.4 339.87-12.4 339.87-15.6 361.52-15.6 359.37-14.05Q359.42-16.95 358.32-19.25 357.22-21.55 355.2-22.85 353.17-24.15 350.37-24.15L350.37-24.15Q347.52-24.15 345.37-22.8 343.22-21.45 342.05-19.07 340.87-16.7 340.87-13.65L340.87-13.65Q340.87-10.6 342.2-8.25 343.52-5.9 345.82-4.55 348.12-3.2 351.12-3.2L351.12-3.2Q352.92-3.2 354.75-3.83 356.57-4.45 357.67-5.4L357.67-5.4Q358.22-5.85 358.92-5.88 359.62-5.9 360.12-5.5L360.12-5.5Q360.77-4.9 360.8-4.2 360.82-3.5 360.22-3L360.22-3Q358.57-1.6 356.02-0.68 353.47 0.25 351.12 0.25ZM368.97 8.1L368.97 8.1Q368.47 8.1 368.19 7.83 367.92 7.55 367.92 7.1L367.92 7.1Q367.92 6.35 368.37 5.73 368.82 5.1 369.29 4.4 369.77 3.7 369.77 2.7L369.77 2.7Q369.77 1.8 369.42 1.2 369.07 0.6 368.59 0.13 368.12-0.35 367.77-0.93 367.42-1.5 367.42-2.35L367.42-2.35Q367.42-3.6 368.24-4.35 369.07-5.1 370.32-5.1L370.32-5.1Q371.82-5.1 372.77-3.93 373.72-2.75 373.72-0.65L373.72-0.65Q373.72 0.75 373.32 2.3 372.92 3.85 372.22 5.18 371.52 6.5 370.67 7.3 369.82 8.1 368.97 8.1ZM410.81 0L398.06 0Q397.11 0 396.49-0.53 395.86-1.05 395.86-1.95L395.86-1.95 395.86-37.1Q395.86-37.95 396.41-38.5 396.96-39.05 397.81-39.05L397.81-39.05 409.96-39.05Q412.96-39.05 415.39-37.77 417.81-36.5 419.24-34.3 420.66-32.1 420.66-29.2L420.66-29.2Q420.66-26.5 419.21-24.4 417.76-22.3 415.41-21.2L415.41-21.2Q418.76-20.3 420.81-17.82 422.86-15.35 422.86-11.55L422.86-11.55Q422.86-8.15 421.31-5.55 419.76-2.95 417.04-1.48 414.31 0 410.81 0L410.81 0ZM399.76-19L399.76-3.75 410.81-3.75Q413.21-3.75 415.06-4.7 416.91-5.65 417.96-7.4 419.01-9.15 419.01-11.55L419.01-11.55Q419.01-13.8 417.96-15.48 416.91-17.15 415.06-18.07 413.21-19 410.81-19L410.81-19 399.76-19ZM399.76-35.3L399.76-22.75 409.96-22.75Q412.96-22.75 414.91-24.45 416.86-26.15 416.86-29.2L416.86-29.2Q416.86-32.2 414.91-33.75 412.96-35.3 409.96-35.3L409.96-35.3 399.76-35.3ZM442.01 0.3L442.01 0.3Q438.46 0.3 435.66-1.18 432.86-2.65 431.24-5.5 429.61-8.35 429.61-12.45L429.61-12.45 429.61-25.45Q429.61-26.25 430.16-26.8 430.71-27.35 431.51-27.35L431.51-27.35Q432.36-27.35 432.91-26.8 433.46-26.25 433.46-25.45L433.46-25.45 433.46-12.45Q433.46-9.35 434.64-7.35 435.81-5.35 437.84-4.35 439.86-3.35 442.41-3.35L442.41-3.35Q444.86-3.35 446.84-4.3 448.81-5.25 449.96-6.9 451.11-8.55 451.11-10.65L451.11-10.65 453.86-10.65Q453.71-7.5 452.14-5.03 450.56-2.55 447.91-1.13 445.26 0.3 442.01 0.3ZM453.01 0L453.01 0Q452.16 0 451.64-0.53 451.11-1.05 451.11-1.95L451.11-1.95 451.11-25.45Q451.11-26.3 451.64-26.83 452.16-27.35 453.01-27.35L453.01-27.35Q453.86-27.35 454.41-26.83 454.96-26.3 454.96-25.45L454.96-25.45 454.96-1.95Q454.96-1.05 454.41-0.53 453.86 0 453.01 0ZM466.71 0L466.71 0Q465.81 0 465.28-0.53 464.76-1.05 464.76-1.95L464.76-1.95 464.76-25.4Q464.76-26.3 465.28-26.83 465.81-27.35 466.71-27.35L466.71-27.35Q467.56-27.35 468.08-26.83 468.61-26.3 468.61-25.4L468.61-25.4 468.61-1.95Q468.61-1.05 468.08-0.53 467.56 0 466.71 0ZM466.66-32.55L466.66-32.55Q465.56-32.55 464.76-33.35 463.96-34.15 463.96-35.3L463.96-35.3Q463.96-36.55 464.78-37.27 465.61-38 466.71-38L466.71-38Q467.76-38 468.58-37.27 469.41-36.55 469.41-35.3L469.41-35.3Q469.41-34.15 468.61-33.35 467.81-32.55 466.66-32.55ZM484.96 0L484.31 0Q482.31 0 480.73-1.1 479.16-2.2 478.28-4.15 477.41-6.1 477.41-8.65L477.41-8.65 477.41-37.15Q477.41-38 477.93-38.53 478.46-39.05 479.31-39.05L479.31-39.05Q480.16-39.05 480.68-38.53 481.21-38 481.21-37.15L481.21-37.15 481.21-8.65Q481.21-6.5 482.08-5.15 482.96-3.8 484.31-3.8L484.31-3.8 485.56-3.8Q486.31-3.8 486.76-3.28 487.21-2.75 487.21-1.9L487.21-1.9Q487.21-1.05 486.58-0.53 485.96 0 484.96 0L484.96 0ZM503.45 0.25L503.45 0.25Q499.5 0.25 496.35-1.58 493.2-3.4 491.38-6.55 489.55-9.7 489.55-13.7L489.55-13.7Q489.55-17.65 491.33-20.8 493.1-23.95 496.15-25.78 499.2-27.6 503.05-27.6L503.05-27.6Q506.4-27.6 509.1-26.18 511.8-24.75 513.45-22.4L513.45-22.4 513.45-37.1Q513.45-38 514-38.53 514.55-39.05 515.4-39.05L515.4-39.05Q516.25-39.05 516.8-38.53 517.35-38 517.35-37.1L517.35-37.1 517.35-13.5Q517.25-9.6 515.43-6.48 513.6-3.35 510.48-1.55 507.35 0.25 503.45 0.25ZM503.45-3.25L503.45-3.25Q506.35-3.25 508.63-4.63 510.9-6 512.23-8.35 513.55-10.7 513.55-13.7L513.55-13.7Q513.55-16.65 512.23-19.03 510.9-21.4 508.63-22.75 506.35-24.1 503.45-24.1L503.45-24.1Q500.6-24.1 498.3-22.75 496-21.4 494.65-19.03 493.3-16.65 493.3-13.7L493.3-13.7Q493.3-10.7 494.65-8.35 496-6 498.3-4.63 500.6-3.25 503.45-3.25ZM529.1 0L529.1 0Q528.2 0 527.68-0.53 527.15-1.05 527.15-1.95L527.15-1.95 527.15-25.4Q527.15-26.3 527.68-26.83 528.2-27.35 529.1-27.35L529.1-27.35Q529.95-27.35 530.48-26.83 531-26.3 531-25.4L531-25.4 531-1.95Q531-1.05 530.48-0.53 529.95 0 529.1 0ZM529.05-32.55L529.05-32.55Q527.95-32.55 527.15-33.35 526.35-34.15 526.35-35.3L526.35-35.3Q526.35-36.55 527.18-37.27 528-38 529.1-38L529.1-38Q530.15-38 530.98-37.27 531.8-36.55 531.8-35.3L531.8-35.3Q531.8-34.15 531-33.35 530.2-32.55 529.05-32.55ZM564.25 0L564.25 0Q563.4 0 562.85-0.55 562.3-1.1 562.3-1.9L562.3-1.9 562.3-14.9Q562.3-18 561.12-20 559.95-22 557.92-23 555.9-24 553.35-24L553.35-24Q550.9-24 548.92-23.05 546.95-22.1 545.8-20.45 544.65-18.8 544.65-16.7L544.65-16.7 541.9-16.7Q542-19.85 543.6-22.33 545.2-24.8 547.85-26.23 550.5-27.65 553.75-27.65L553.75-27.65Q557.3-27.65 560.1-26.18 562.9-24.7 564.52-21.85 566.15-19 566.15-14.9L566.15-14.9 566.15-1.9Q566.15-1.1 565.6-0.55 565.05 0 564.25 0ZM542.75 0L542.75 0Q541.85 0 541.32-0.53 540.8-1.05 540.8-1.9L540.8-1.9 540.8-25.4Q540.8-26.3 541.32-26.83 541.85-27.35 542.75-27.35L542.75-27.35Q543.6-27.35 544.12-26.83 544.65-26.3 544.65-25.4L544.65-25.4 544.65-1.9Q544.65-1.05 544.12-0.53 543.6 0 542.75 0ZM586.69 0.25L586.69 0.25Q582.75 0.25 579.69-1.53 576.64-3.3 574.92-6.45 573.19-9.6 573.19-13.65L573.19-13.65Q573.19-17.75 575-20.9 576.79-24.05 579.94-25.83 583.1-27.6 587.1-27.6L587.1-27.6Q591.14-27.6 594.27-25.83 597.39-24.05 599.17-20.9 600.94-17.75 601-13.65L601-13.65 598.75-12.45Q598.75-8.75 597.19-5.88 595.64-3 592.92-1.38 590.19 0.25 586.69 0.25ZM587.19 10.8L587.19 10.8Q583.25 10.8 580.25 9.33 577.25 7.85 575.29 5.3L575.29 5.3Q574.75 4.7 574.82 4 574.89 3.3 575.54 2.85L575.54 2.85Q576.19 2.4 577 2.55 577.79 2.7 578.25 3.3L578.25 3.3Q579.69 5.1 581.97 6.2 584.25 7.3 587.25 7.3L587.25 7.3Q590.04 7.3 592.29 5.95 594.54 4.6 595.87 2.15 597.19-0.3 597.19-3.6L597.19-3.6 597.19-11.2 598.64-14.1 601-13.65 601-3.45Q601 0.6 599.19 3.83 597.39 7.05 594.29 8.93 591.19 10.8 587.19 10.8ZM587.1-3.25L587.1-3.25Q590.04-3.25 592.32-4.58 594.6-5.9 595.89-8.25 597.19-10.6 597.19-13.65L597.19-13.65Q597.19-16.7 595.89-19.07 594.6-21.45 592.32-22.78 590.04-24.1 587.1-24.1L587.1-24.1Q584.14-24.1 581.85-22.78 579.54-21.45 578.25-19.07 576.94-16.7 576.94-13.65L576.94-13.65Q576.94-10.6 578.25-8.25 579.54-5.9 581.85-4.58 584.14-3.25 587.1-3.25ZM622.49 0L622.49 0Q621.69 0 621.11-0.58 620.54-1.15 620.54-1.95L620.54-1.95 620.54-37.1Q620.54-37.95 621.09-38.5 621.64-39.05 622.49-39.05L622.49-39.05 645.94-39.05Q646.79-39.05 647.34-38.53 647.89-38 647.89-37.15L647.89-37.15Q647.89-36.4 647.34-35.85 646.79-35.3 645.94-35.3L645.94-35.3 624.44-35.3 624.44-21.5 640.09-21.5Q640.94-21.5 641.49-20.95 642.04-20.4 642.04-19.6L642.04-19.6Q642.04-18.8 641.49-18.25 640.94-17.7 640.09-17.7L640.09-17.7 624.44-17.7 624.44-1.95Q624.44-1.15 623.89-0.58 623.34 0 622.49 0ZM666.29 0.3L666.29 0.3Q662.74 0.3 659.94-1.18 657.14-2.65 655.51-5.5 653.89-8.35 653.89-12.45L653.89-12.45 653.89-25.45Q653.89-26.25 654.44-26.8 654.99-27.35 655.79-27.35L655.79-27.35Q656.64-27.35 657.19-26.8 657.74-26.25 657.74-25.45L657.74-25.45 657.74-12.45Q657.74-9.35 658.91-7.35 660.09-5.35 662.11-4.35 664.14-3.35 666.69-3.35L666.69-3.35Q669.14-3.35 671.11-4.3 673.09-5.25 674.24-6.9 675.39-8.55 675.39-10.65L675.39-10.65 678.14-10.65Q677.99-7.5 676.41-5.03 674.84-2.55 672.19-1.13 669.54 0.3 666.29 0.3ZM677.29 0L677.29 0Q676.44 0 675.91-0.53 675.39-1.05 675.39-1.95L675.39-1.95 675.39-25.45Q675.39-26.3 675.91-26.83 676.44-27.35 677.29-27.35L677.29-27.35Q678.14-27.35 678.69-26.83 679.24-26.3 679.24-25.45L679.24-25.45 679.24-1.95Q679.24-1.05 678.69-0.53 678.14 0 677.29 0ZM699.98 0L698.93 0Q696.28 0 694.21-1.25 692.13-2.5 690.93-4.67 689.73-6.85 689.73-9.65L689.73-9.65 689.73-34.1Q689.73-34.95 690.26-35.5 690.78-36.05 691.63-36.05L691.63-36.05Q692.48-36.05 693.03-35.5 693.58-34.95 693.58-34.1L693.58-34.1 693.58-9.65Q693.58-7.1 695.08-5.48 696.58-3.85 698.93-3.85L698.93-3.85 700.28-3.85Q701.08-3.85 701.58-3.3 702.08-2.75 702.08-1.9L702.08-1.9Q702.08-1.05 701.48-0.53 700.88 0 699.98 0L699.98 0ZM699.23-23L686.48-23Q685.73-23 685.23-23.48 684.73-23.95 684.73-24.65L684.73-24.65Q684.73-25.4 685.23-25.88 685.73-26.35 686.48-26.35L686.48-26.35 699.23-26.35Q699.98-26.35 700.48-25.88 700.98-25.4 700.98-24.65L700.98-24.65Q700.98-23.95 700.48-23.48 699.98-23 699.23-23L699.23-23ZM720.23 0.3L720.23 0.3Q716.68 0.3 713.88-1.18 711.08-2.65 709.46-5.5 707.83-8.35 707.83-12.45L707.83-12.45 707.83-25.45Q707.83-26.25 708.38-26.8 708.93-27.35 709.73-27.35L709.73-27.35Q710.58-27.35 711.13-26.8 711.68-26.25 711.68-25.45L711.68-25.45 711.68-12.45Q711.68-9.35 712.86-7.35 714.03-5.35 716.06-4.35 718.08-3.35 720.63-3.35L720.63-3.35Q723.08-3.35 725.06-4.3 727.03-5.25 728.18-6.9 729.33-8.55 729.33-10.65L729.33-10.65 732.08-10.65Q731.93-7.5 730.36-5.03 728.78-2.55 726.13-1.13 723.48 0.3 720.23 0.3ZM731.23 0L731.23 0Q730.38 0 729.86-0.53 729.33-1.05 729.33-1.95L729.33-1.95 729.33-25.45Q729.33-26.3 729.86-26.83 730.38-27.35 731.23-27.35L731.23-27.35Q732.08-27.35 732.63-26.83 733.18-26.3 733.18-25.45L733.18-25.45 733.18-1.95Q733.18-1.05 732.63-0.53 732.08 0 731.23 0ZM745.98-16.85L743.78-16.85Q743.93-19.95 745.4-22.4 746.88-24.85 749.25-26.25 751.63-27.65 754.53-27.65L754.53-27.65Q756.83-27.65 758.08-27 759.33-26.35 759.03-25.1L759.03-25.1Q758.83-24.35 758.35-24.1 757.88-23.85 757.2-23.9 756.53-23.95 755.68-24L755.68-24Q752.88-24.25 750.7-23.43 748.53-22.6 747.25-20.9 745.98-19.2 745.98-16.85L745.98-16.85ZM744.08 0L744.08 0Q743.18 0 742.68-0.5 742.18-1 742.18-1.9L742.18-1.9 742.18-25.45Q742.18-26.35 742.68-26.85 743.18-27.35 744.08-27.35L744.08-27.35Q744.98-27.35 745.48-26.85 745.98-26.35 745.98-25.45L745.98-25.45 745.98-1.9Q745.98-1 745.48-0.5 744.98 0 744.08 0ZM775.48 0.25L775.48 0.25Q771.43 0.25 768.3-1.53 765.18-3.3 763.4-6.45 761.63-9.6 761.63-13.65L761.63-13.65Q761.63-17.75 763.3-20.88 764.98-24 767.93-25.8 770.88-27.6 774.73-27.6L774.73-27.6Q778.53-27.6 781.35-25.88 784.18-24.15 785.73-21.1 787.28-18.05 787.28-14.15L787.28-14.15Q787.28-13.35 786.78-12.88 786.28-12.4 785.48-12.4L785.48-12.4 764.23-12.4 764.23-15.6 785.88-15.6 783.73-14.05Q783.78-16.95 782.68-19.25 781.58-21.55 779.55-22.85 777.53-24.15 774.73-24.15L774.73-24.15Q771.88-24.15 769.73-22.8 767.58-21.45 766.4-19.07 765.23-16.7 765.23-13.65L765.23-13.65Q765.23-10.6 766.55-8.25 767.88-5.9 770.18-4.55 772.48-3.2 775.48-3.2L775.48-3.2Q777.28-3.2 779.1-3.83 780.93-4.45 782.03-5.4L782.03-5.4Q782.58-5.85 783.28-5.88 783.98-5.9 784.48-5.5L784.48-5.5Q785.13-4.9 785.15-4.2 785.18-3.5 784.58-3L784.58-3Q782.93-1.6 780.38-0.68 777.83 0.25 775.48 0.25ZM803.32 0.25L803.32 0.25Q800.37 0.25 797.47-0.75 794.57-1.75 792.77-3.75L792.77-3.75Q792.22-4.35 792.32-5.1 792.42-5.85 793.07-6.4L793.07-6.4Q793.77-6.9 794.52-6.8 795.27-6.7 795.77-6.15L795.77-6.15Q796.97-4.75 798.95-4 800.92-3.25 803.32-3.25L803.32-3.25Q807.02-3.25 808.67-4.53 810.32-5.8 810.37-7.6L810.37-7.6Q810.37-9.4 808.67-10.58 806.97-11.75 803.07-12.4L803.07-12.4Q798.02-13.2 795.67-15.2 793.32-17.2 793.32-19.95L793.32-19.95Q793.32-22.5 794.67-24.2 796.02-25.9 798.27-26.75 800.52-27.6 803.22-27.6L803.22-27.6Q806.57-27.6 809-26.45 811.42-25.3 812.92-23.35L812.92-23.35Q813.42-22.7 813.32-22 813.22-21.3 812.52-20.85L812.52-20.85Q811.92-20.5 811.15-20.63 810.37-20.75 809.82-21.35L809.82-21.35Q808.57-22.8 806.92-23.48 805.27-24.15 803.12-24.15L803.12-24.15Q800.37-24.15 798.72-23.03 797.07-21.9 797.07-20.2L797.07-20.2Q797.07-19.05 797.7-18.2 798.32-17.35 799.85-16.7 801.37-16.05 804.12-15.6L804.12-15.6Q807.87-15 810.05-13.83 812.22-12.65 813.15-11.08 814.07-9.5 814.07-7.65L814.07-7.65Q814.07-5.3 812.7-3.53 811.32-1.75 808.9-0.75 806.47 0.25 803.32 0.25ZM821.62 0.8L821.62 0.8Q820.42 0.8 819.57-0.05 818.72-0.9 818.72-2.1L818.72-2.1Q818.72-3.35 819.6-4.2 820.47-5.05 821.62-5.05L821.62-5.05Q822.82-5.05 823.67-4.17 824.52-3.3 824.52-2.1L824.52-2.1Q824.52-0.95 823.7-0.08 822.87 0.8 821.62 0.8Z" opacity="1" transform="matrix(1,0,0,1,0,0)" fill="#000000" class="wordmark-text-0" data-fill-palette-color="primary" id="text-0"></path></svg></g></svg></g></svg></g></svg></g><g transform="matrix(1,0,0,1,171.0123809970674,0)"><svg viewBox="0 0 55.47283800586511 33.50181987096775" height="33.50181987096775" width="55.47283800586511"><g><svg xmlns="http://www.w3.org/2000/svg" xmlns:xlink="http://www.w3.org/1999/xlink" version="1.1" x="8" y="0" viewBox="0.1646825396825397 4 49.83630952380953 42.29761904761906" enable-background="new 0 0 50.4 50.4" xml:space="preserve" width="39.47283800586511" height="33.50181987096775" class="icon-icon-0" data-fill-palette-color="accent" id="icon-0"><g fill="#d2d6dc" data-fill-palette-color="accent"><rect x="0.166" y="31.438" width="3.515" height="3.518" fill="#d2d6dc" data-fill-palette-color="accent"></rect><rect x="5.93" y="31.438" width="3.515" height="3.518" fill="#d2d6dc" data-fill-palette-color="accent"></rect><rect x="11.834" y="31.438" width="3.516" height="3.518" fill="#d2d6dc" data-fill-palette-color="accent"></rect><rect x="17.599" y="31.438" width="3.514" height="3.518" fill="#d2d6dc" data-fill-palette-color="accent"></rect><rect x="23.502" y="31.438" width="3.515" height="3.518" fill="#d2d6dc" data-fill-palette-color="accent"></rect><rect x="29.267" y="31.438" width="3.515" height="3.518" fill="#d2d6dc" data-fill-palette-color="accent"></rect><rect x="35.17" y="31.438" width="3.517" height="3.518" fill="#d2d6dc" data-fill-palette-color="accent"></rect><rect x="40.937" y="31.438" width="3.515" height="3.518" fill="#d2d6dc" data-fill-palette-color="accent"></rect><rect x="0.166" y="37.269" width="3.515" height="3.514" fill="#d2d6dc" data-fill-palette-color="accent"></rect><rect x="5.93" y="37.269" width="3.515" height="3.514" fill="#d2d6dc" data-fill-palette-color="accent"></rect><rect x="11.834" y="37.269" width="3.516" height="3.514" fill="#d2d6dc" data-fill-palette-color="accent"></rect><rect x="17.599" y="37.269" width="3.514" height="3.514" fill="#d2d6dc" data-fill-palette-color="accent"></rect><rect x="23.502" y="37.269" width="3.515" height="3.514" fill="#d2d6dc" data-fill-palette-color="accent"></rect><rect x="29.267" y="37.269" width="3.515" height="3.514" fill="#d2d6dc" data-fill-palette-color="accent"></rect><rect x="35.17" y="37.269" width="3.517" height="3.514" fill="#d2d6dc" data-fill-palette-color="accent"></rect><rect x="40.937" y="37.269" width="3.515" height="3.514" fill="#d2d6dc" data-fill-palette-color="accent"></rect><rect x="0.166" y="43.154" width="3.515" height="3.514" fill="#d2d6dc" data-fill-palette-color="accent"></rect><rect x="5.93" y="43.154" width="3.515" height="3.514" fill="#d2d6dc" data-fill-palette-color="accent"></rect><rect x="11.834" y="43.154" width="26.853" height="3.514" fill="#d2d6dc" data-fill-palette-color="accent"></rect><rect x="40.937" y="43.154" width="3.515" height="3.514" fill="#d2d6dc" data-fill-palette-color="accent"></rect><rect x="46.887" y="31.438" width="3.514" height="3.518" fill="#d2d6dc" data-fill-palette-color="accent"></rect><rect x="46.887" y="37.269" width="3.514" height="3.514" fill="#d2d6dc" data-fill-palette-color="accent"></rect><rect x="46.887" y="43.154" width="3.514" height="3.514" fill="#d2d6dc" data-fill-palette-color="accent"></rect><rect x="6" y="4.032" width="38.521" height="24.06" fill="#d2d6dc" data-fill-palette-color="accent"></rect></g></svg></g></svg></g><g><rect width="94.47926099706744" height="2.186127850826323" y="30.315692020141427" x="226.4852190029325" fill="#61777f" data-fill-palette-color="secondary"></rect><rect width="94.47926099706744" height="2.186127850826323" y="30.315692020141427" x="76.53311999999997" fill="#61777f" data-fill-palette-color="secondary"></rect></g></svg></g><defs></defs></svg><rect width="395.52" height="71.02009120692077" fill="none" stroke="none" visibility="hidden"></rect></g></svg></g></svg>