<svg xmlns="http://www.w3.org/2000/svg" version="1.1" xmlns:xlink="http://www.w3.org/1999/xlink" xmlns:svgjs="http://svgjs.dev/svgjs" width="1500" height="340" viewBox="0 0 1500 340"><g transform="matrix(1,0,0,1,-0.9090909090909918,-0.40180574634024424)"><svg viewBox="0 0 396 90" data-background-color="#ffffff" preserveAspectRatio="xMidYMid meet" height="340" width="1500" xmlns="http://www.w3.org/2000/svg" xmlns:xlink="http://www.w3.org/1999/xlink"><g id="tight-bounds" transform="matrix(1,0,0,1,0.2400000000000091,0.10636034461947474)"><svg viewBox="0 0 395.52 89.78727931076106" height="89.78727931076106" width="395.52"><g><svg viewBox="0 0 608.0313083047777 138.0296240606001" height="89.78727931076106" width="395.52"><g><rect width="5.761683789202448" height="138.0296240606001" x="191.6666826590244" y="0" fill="#000000" opacity="1" stroke-width="0" stroke="transparent" fill-opacity="1" class="rect-qz-0" data-fill-palette-color="primary" rx="1%" id="qz-0" data-palette-color="#000000"></rect></g><g transform="matrix(1,0,0,1,212.51130830477774,0.34335727378258696)"><svg viewBox="0 0 395.52 137.34290951303493" height="137.34290951303493" width="395.52"><g id="textblocktransform"><svg viewBox="0 0 395.52 137.34290951303493" height="137.34290951303493" width="395.52" id="textblock"><g><svg viewBox="0 0 395.52 137.34290951303493" height="137.34290951303493" width="395.52"><g transform="matrix(1,0,0,1,0,0)"><svg width="395.52" viewBox="3.6100000000000048 -39.60000000000001 248.17 83.18" height="137.34290951303493" data-palette-color="#000000"><svg></svg><svg></svg><g class="wordmark-text-0" data-fill-palette-color="primary" id="text-0"><path d="M32.35-6.3v2.86c-0.913 0.793-1.907 1.447-2.98 1.96-1.073 0.513-2.157 0.917-3.25 1.21-1.087 0.293-2.13 0.493-3.13 0.6-1.007 0.107-1.89 0.16-2.65 0.16v0c-2.36 0-4.557-0.42-6.59-1.26-2.04-0.84-3.81-2.023-5.31-3.55-1.507-1.533-2.687-3.377-3.54-5.53-0.86-2.16-1.29-4.567-1.29-7.22v0c0-1.98 0.247-3.833 0.74-5.56 0.487-1.727 1.17-3.297 2.05-4.71 0.873-1.42 1.913-2.683 3.12-3.79 1.207-1.107 2.533-2.037 3.98-2.79 1.447-0.76 2.987-1.34 4.62-1.74 1.627-0.393 3.293-0.59 5-0.59v0c1.12 0 2.47 0.1 4.05 0.3 1.58 0.207 3.273 0.577 5.08 1.11v0l-0.83 4.25-0.49 0.24c-1.787-0.813-3.45-1.37-4.99-1.67-1.54-0.3-2.847-0.45-3.92-0.45v0c-1.953 0-3.75 0.377-5.39 1.13-1.647 0.76-3.063 1.797-4.25 3.11-1.187 1.307-2.117 2.83-2.79 4.57-0.667 1.747-1 3.603-1 5.57v0c0 1.887 0.297 3.713 0.89 5.48 0.6 1.767 1.477 3.33 2.63 4.69 1.153 1.36 2.577 2.45 4.27 3.27 1.693 0.82 3.64 1.23 5.84 1.23v0c0.633 0 1.333-0.04 2.1-0.12 0.76-0.08 1.573-0.23 2.44-0.45 0.86-0.22 1.763-0.513 2.71-0.88 0.94-0.367 1.9-0.843 2.88-1.43zM49.27 0.49v0c-1.92 0-3.63-0.343-5.13-1.03-1.5-0.68-2.767-1.6-3.8-2.76-1.033-1.153-1.82-2.5-2.36-4.04-0.547-1.533-0.82-3.157-0.82-4.87v0c0-1.953 0.347-3.787 1.04-5.5 0.687-1.72 1.647-3.223 2.88-4.51 1.227-1.287 2.687-2.3 4.38-3.04 1.693-0.74 3.533-1.11 5.52-1.11v0c1.933 0 3.657 0.347 5.17 1.04 1.513 0.693 2.787 1.627 3.82 2.8 1.033 1.167 1.82 2.52 2.36 4.06 0.533 1.54 0.8 3.157 0.8 4.85v0c0 1.967-0.35 3.81-1.05 5.53-0.693 1.713-1.66 3.207-2.9 4.48-1.24 1.267-2.703 2.267-4.39 3-1.693 0.733-3.533 1.1-5.52 1.1zM50.29-3.22v0c1.193 0 2.273-0.24 3.24-0.72 0.967-0.48 1.797-1.137 2.49-1.97 0.693-0.827 1.23-1.807 1.61-2.94 0.38-1.133 0.57-2.35 0.57-3.65v0c0-1.287-0.187-2.537-0.56-3.75-0.373-1.213-0.913-2.293-1.62-3.24-0.707-0.953-1.573-1.72-2.6-2.3-1.027-0.58-2.183-0.87-3.47-0.87v0c-1.187 0-2.263 0.24-3.23 0.72-0.973 0.48-1.803 1.14-2.49 1.98-0.693 0.84-1.233 1.83-1.62 2.97-0.38 1.14-0.57 2.36-0.57 3.66v0c0 1.287 0.187 2.537 0.56 3.75 0.373 1.213 0.917 2.29 1.63 3.23 0.707 0.947 1.567 1.703 2.58 2.27 1.02 0.573 2.18 0.86 3.48 0.86zM88.13-7.37v-14.07c-1.2-0.52-2.28-0.853-3.24-1-0.96-0.147-1.75-0.22-2.37-0.22v0c-1.447 0-2.737 0.24-3.87 0.72-1.133 0.48-2.09 1.153-2.87 2.02-0.78 0.86-1.373 1.893-1.78 3.1-0.407 1.207-0.61 2.533-0.61 3.98v0c0 1.267 0.17 2.47 0.51 3.61 0.34 1.14 0.83 2.14 1.47 3 0.633 0.867 1.397 1.553 2.29 2.06 0.893 0.5 1.893 0.75 3 0.75v0c1.32 0 2.603-0.353 3.85-1.06 1.247-0.707 2.453-1.67 3.62-2.89zM88.13-25.73v-13.38h4.64v39.11h-3.61l-0.73-4.49c-0.553 0.52-1.173 1.07-1.86 1.65-0.68 0.573-1.437 1.11-2.27 1.61-0.827 0.493-1.727 0.903-2.7 1.23-0.967 0.327-1.993 0.49-3.08 0.49v0c-1.567 0-2.967-0.347-4.2-1.04-1.24-0.693-2.29-1.613-3.15-2.76-0.867-1.147-1.527-2.46-1.98-3.94-0.453-1.48-0.68-3.02-0.68-4.62v0c0-2.093 0.377-4.03 1.13-5.81 0.76-1.773 1.797-3.303 3.11-4.59 1.32-1.28 2.867-2.283 4.64-3.01 1.773-0.727 3.68-1.09 5.72-1.09v0c0.973 0 1.887 0.07 2.74 0.21 0.853 0.14 1.613 0.283 2.28 0.43zM121.78-4.83v2.63c-0.62 0.44-1.333 0.827-2.14 1.16-0.807 0.333-1.64 0.613-2.5 0.84-0.867 0.233-1.733 0.407-2.6 0.52-0.873 0.113-1.683 0.17-2.43 0.17v0c-1.66 0-3.24-0.277-4.74-0.83-1.493-0.553-2.803-1.367-3.93-2.44-1.12-1.073-2.013-2.403-2.68-3.99-0.667-1.593-1-3.423-1-5.49v0c0-2.127 0.353-4.063 1.06-5.81 0.707-1.74 1.653-3.223 2.84-4.45 1.187-1.233 2.56-2.183 4.12-2.85 1.553-0.667 3.183-1 4.89-1v0c1.387 0 2.677 0.233 3.87 0.7 1.193 0.46 2.237 1.157 3.13 2.09 0.887 0.927 1.58 2.087 2.08 3.48 0.507 1.387 0.76 3.01 0.76 4.87v0c0 0.373-0.017 0.82-0.05 1.34-0.033 0.52-0.097 1.063-0.19 1.63v0h-17.68c0 1.4 0.247 2.65 0.74 3.75 0.5 1.1 1.2 2.027 2.1 2.78 0.907 0.76 1.987 1.337 3.24 1.73 1.253 0.387 2.637 0.58 4.15 0.58v0c0.373 0 0.83-0.017 1.37-0.05 0.533-0.033 1.11-0.097 1.73-0.19 0.62-0.1 1.263-0.243 1.93-0.43 0.667-0.187 1.31-0.433 1.93-0.74zM104.59-15.14h13.53c0-1.22-0.173-2.297-0.52-3.23-0.34-0.94-0.803-1.727-1.39-2.36-0.587-0.633-1.267-1.113-2.04-1.44-0.773-0.327-1.6-0.49-2.48-0.49v0c-0.973 0-1.89 0.2-2.75 0.6-0.867 0.4-1.62 0.943-2.26 1.63-0.647 0.68-1.157 1.477-1.53 2.39-0.373 0.913-0.56 1.88-0.56 2.9zM157.79-6.3v2.86c-0.913 0.793-1.907 1.447-2.98 1.96-1.073 0.513-2.157 0.917-3.25 1.21-1.087 0.293-2.13 0.493-3.13 0.6-1.007 0.107-1.89 0.16-2.65 0.16v0c-2.36 0-4.56-0.42-6.6-1.26-2.033-0.84-3.803-2.023-5.31-3.55-1.5-1.533-2.68-3.377-3.54-5.53-0.853-2.16-1.28-4.567-1.28-7.22v0c0-1.98 0.247-3.833 0.74-5.56 0.487-1.727 1.17-3.297 2.05-4.71 0.873-1.42 1.913-2.683 3.12-3.79 1.207-1.107 2.533-2.037 3.98-2.79 1.447-0.76 2.983-1.34 4.61-1.74 1.633-0.393 3.303-0.59 5.01-0.59v0c1.12 0 2.47 0.1 4.05 0.3 1.58 0.207 3.273 0.577 5.08 1.11v0l-0.83 4.25-0.49 0.24c-1.787-0.813-3.45-1.37-4.99-1.67-1.54-0.3-2.847-0.45-3.92-0.45v0c-1.953 0-3.75 0.377-5.39 1.13-1.647 0.76-3.063 1.797-4.25 3.11-1.187 1.307-2.117 2.83-2.79 4.57-0.667 1.747-1 3.603-1 5.57v0c0 1.887 0.297 3.713 0.89 5.48 0.6 1.767 1.477 3.33 2.63 4.69 1.153 1.36 2.577 2.45 4.27 3.27 1.693 0.82 3.64 1.23 5.84 1.23v0c0.633 0 1.333-0.04 2.1-0.12 0.76-0.08 1.573-0.23 2.44-0.45 0.86-0.22 1.763-0.513 2.71-0.88 0.94-0.367 1.9-0.843 2.88-1.43zM164.97 0v-25.88h3.61l0.73 7.76c0.213-0.407 0.437-0.823 0.67-1.25 0.24-0.433 0.477-0.853 0.71-1.26 0.233-0.407 0.467-0.79 0.7-1.15 0.227-0.353 0.43-0.663 0.61-0.93v0c0.353-0.5 0.757-0.973 1.21-1.42 0.447-0.447 0.93-0.84 1.45-1.18 0.52-0.333 1.073-0.593 1.66-0.78 0.587-0.187 1.213-0.28 1.88-0.28v0c0.473 0 0.92 0.053 1.34 0.16 0.427 0.107 0.777 0.283 1.05 0.53v0l-0.49 4.34c-0.293-0.08-0.58-0.133-0.86-0.16-0.287-0.02-0.57-0.03-0.85-0.03v0c-1.153 0-2.157 0.187-3.01 0.56-0.853 0.373-1.62 0.88-2.3 1.52-0.673 0.647-1.283 1.4-1.83 2.26-0.547 0.867-1.097 1.797-1.65 2.79v0 14.4zM200.07-3.86v0c-0.407 0.347-0.897 0.767-1.47 1.26-0.58 0.493-1.233 0.97-1.96 1.43-0.72 0.453-1.51 0.843-2.37 1.17-0.853 0.327-1.76 0.49-2.72 0.49v0c-0.86 0-1.7-0.15-2.52-0.45-0.827-0.307-1.557-0.757-2.19-1.35-0.633-0.593-1.143-1.33-1.53-2.21-0.38-0.873-0.57-1.88-0.57-3.02v0c0-0.7 0.087-1.41 0.26-2.13 0.167-0.713 0.453-1.4 0.86-2.06 0.407-0.66 0.94-1.28 1.6-1.86 0.66-0.573 1.473-1.077 2.44-1.51 0.973-0.433 2.117-0.77 3.43-1.01 1.32-0.247 2.837-0.37 4.55-0.37v0h2.19v-2.24c0-0.753-0.13-1.43-0.39-2.03-0.26-0.6-0.62-1.117-1.08-1.55-0.467-0.433-1.02-0.767-1.66-1-0.647-0.24-1.36-0.36-2.14-0.36v0c-0.587 0-1.21 0.067-1.87 0.2-0.66 0.127-1.32 0.313-1.98 0.56-0.653 0.247-1.283 0.533-1.89 0.86-0.6 0.32-1.127 0.677-1.58 1.07v0l-0.44-0.24-0.98-3.57c0.947-0.52 1.857-0.947 2.73-1.28 0.88-0.333 1.723-0.597 2.53-0.79 0.807-0.2 1.577-0.337 2.31-0.41 0.733-0.073 1.433-0.11 2.1-0.11v0c3.04 0 5.297 0.63 6.77 1.89 1.473 1.267 2.21 3.16 2.21 5.68v0 12.75c0 0.207 0.017 0.46 0.05 0.76 0.033 0.307 0.11 0.597 0.23 0.87 0.127 0.28 0.307 0.517 0.54 0.71 0.233 0.193 0.553 0.29 0.96 0.29v0c0.233 0 0.537-0.037 0.91-0.11 0.373-0.073 0.747-0.2 1.12-0.38v0 2.59c-0.78 0.54-1.567 0.977-2.36 1.31-0.787 0.333-1.547 0.5-2.28 0.5v0c-0.667 0-1.217-0.133-1.65-0.4-0.427-0.273-0.783-0.62-1.07-1.04-0.287-0.427-0.51-0.897-0.67-1.41-0.167-0.513-0.307-1.013-0.42-1.5zM200.07-6.98v-5.67h-1.85c-1.907 0-3.427 0.137-4.56 0.41-1.127 0.267-1.987 0.623-2.58 1.07-0.593 0.447-0.987 0.963-1.18 1.55-0.187 0.587-0.28 1.197-0.28 1.83v0c0 0.687 0.1 1.297 0.3 1.83 0.193 0.54 0.463 1 0.81 1.38 0.353 0.387 0.773 0.677 1.26 0.87 0.487 0.193 1.017 0.29 1.59 0.29v0c0.44 0 0.89-0.053 1.35-0.16 0.467-0.107 0.963-0.293 1.49-0.56 0.533-0.267 1.097-0.627 1.69-1.08 0.593-0.46 1.247-1.047 1.96-1.76zM216.09 0v-22.17h-5.23l0.39-2.63 4.84-1.08v-1.27c0-1.673 0.257-3.267 0.77-4.78 0.513-1.513 1.25-2.837 2.21-3.97 0.96-1.133 2.14-2.033 3.54-2.7 1.4-0.667 2.993-1 4.78-1v0c0.667 0 1.367 0.05 2.1 0.15 0.733 0.093 1.443 0.257 2.13 0.49v0l-0.93 3.75-0.49 0.25c-0.54-0.28-1.123-0.503-1.75-0.67-0.627-0.173-1.297-0.26-2.01-0.26v0c-1.027 0-1.9 0.2-2.62 0.6-0.727 0.4-1.317 0.94-1.77 1.62-0.46 0.687-0.797 1.493-1.01 2.42-0.207 0.927-0.31 1.92-0.31 2.98v0 2.39h8.84l-0.98 3.71h-7.86v22.17zM237.77-6.49v-15.68h-5.23l0.39-2.39c1.273-0.26 2.293-0.59 3.06-0.99 0.76-0.4 1.39-0.9 1.89-1.5 0.493-0.6 0.907-1.33 1.24-2.19 0.333-0.853 0.713-1.873 1.14-3.06v0h2.15v6.42h9.37l-0.97 3.71h-8.4v14.46c0 0.78 0.117 1.44 0.35 1.98 0.24 0.547 0.57 0.993 0.99 1.34 0.42 0.34 0.933 0.587 1.54 0.74 0.6 0.153 1.267 0.23 2 0.23v0c0.747 0 1.49-0.07 2.23-0.21 0.74-0.133 1.447-0.323 2.12-0.57v0 2.64c-1.027 0.667-2.107 1.173-3.24 1.52-1.133 0.353-2.283 0.53-3.45 0.53v0c-1.093 0-2.08-0.157-2.96-0.47-0.88-0.307-1.633-0.753-2.26-1.34-0.627-0.587-1.11-1.313-1.45-2.18-0.34-0.873-0.51-1.87-0.51-2.99z" fill="#000000" fill-rule="nonzero" stroke="none" stroke-width="1" stroke-linecap="butt" stroke-linejoin="miter" stroke-miterlimit="10" stroke-dasharray="" stroke-dashoffset="0" font-family="none" font-weight="none" font-size="none" text-anchor="none" style="mix-blend-mode: normal" data-fill-palette-color="primary" opacity="1"></path><path transform="translate(0,43.09)" d="M14.82-3.3v0c1.073 0 2.067-0.14 2.98-0.42 0.913-0.287 1.693-0.693 2.34-1.22 0.653-0.533 1.163-1.167 1.53-1.9 0.367-0.727 0.55-1.54 0.55-2.44v0c0-1.053-0.25-1.947-0.75-2.68-0.493-0.733-1.143-1.377-1.95-1.93-0.807-0.553-1.73-1.047-2.77-1.48-1.04-0.433-2.1-0.873-3.18-1.32-1.073-0.447-2.13-0.93-3.17-1.45-1.04-0.52-1.963-1.153-2.77-1.9-0.807-0.753-1.457-1.637-1.95-2.65-0.5-1.02-0.75-2.253-0.75-3.7v0c0-1.533 0.293-2.91 0.88-4.13 0.587-1.22 1.403-2.257 2.45-3.11 1.053-0.853 2.3-1.503 3.74-1.95 1.44-0.447 3.023-0.67 4.75-0.67v0c1.053 0 2.38 0.1 3.98 0.3 1.593 0.207 3.287 0.577 5.08 1.11v0l-0.81 4.25-0.49 0.24c-0.893-0.407-1.763-0.747-2.61-1.02-0.847-0.28-1.643-0.5-2.39-0.66-0.753-0.167-1.447-0.28-2.08-0.34-0.633-0.067-1.187-0.1-1.66-0.1v0c-0.96 0-1.827 0.117-2.6 0.35-0.773 0.24-1.433 0.583-1.98 1.03-0.54 0.447-0.963 0.99-1.27 1.63-0.3 0.647-0.45 1.377-0.45 2.19v0c0 1.093 0.25 2.02 0.75 2.78 0.493 0.767 1.15 1.443 1.97 2.03 0.827 0.587 1.76 1.107 2.8 1.56 1.04 0.46 2.103 0.917 3.19 1.37 1.08 0.453 2.14 0.94 3.18 1.46 1.04 0.52 1.973 1.127 2.8 1.82 0.82 0.693 1.48 1.513 1.98 2.46 0.493 0.94 0.74 2.07 0.74 3.39v0c0 1.447-0.313 2.827-0.94 4.14-0.627 1.307-1.507 2.46-2.64 3.46-1.127 1.007-2.483 1.807-4.07 2.4-1.587 0.593-3.343 0.89-5.27 0.89v0c-0.813 0-1.663-0.057-2.55-0.17-0.887-0.113-1.777-0.273-2.67-0.48-0.893-0.2-1.777-0.447-2.65-0.74-0.867-0.293-1.693-0.62-2.48-0.98v0l0.83-4.27 0.49-0.25c1.66 0.96 3.34 1.717 5.04 2.27 1.7 0.553 3.317 0.83 4.85 0.83zM45.29 0.49v0c-1.92 0-3.63-0.343-5.13-1.03-1.493-0.68-2.76-1.6-3.8-2.76-1.033-1.153-1.82-2.5-2.36-4.04-0.547-1.533-0.82-3.157-0.82-4.87v0c0-1.953 0.347-3.787 1.04-5.5 0.687-1.72 1.647-3.223 2.88-4.51 1.227-1.287 2.687-2.3 4.38-3.04 1.693-0.74 3.533-1.11 5.52-1.11v0c1.933 0 3.657 0.347 5.17 1.04 1.513 0.693 2.787 1.627 3.82 2.8 1.033 1.167 1.82 2.52 2.36 4.06 0.54 1.54 0.81 3.157 0.81 4.85v0c0 1.967-0.35 3.81-1.05 5.53-0.7 1.713-1.67 3.207-2.91 4.48-1.24 1.267-2.703 2.267-4.39 3-1.693 0.733-3.533 1.1-5.52 1.1zM46.31-3.22v0c1.193 0 2.273-0.24 3.24-0.72 0.967-0.48 1.797-1.137 2.49-1.97 0.693-0.827 1.23-1.807 1.61-2.94 0.38-1.133 0.57-2.35 0.57-3.65v0c0-1.287-0.187-2.537-0.56-3.75-0.373-1.213-0.913-2.293-1.62-3.24-0.707-0.953-1.573-1.72-2.6-2.3-1.027-0.58-2.183-0.87-3.47-0.87v0c-1.187 0-2.263 0.24-3.23 0.72-0.973 0.48-1.803 1.14-2.49 1.98-0.693 0.84-1.23 1.83-1.61 2.97-0.387 1.14-0.58 2.36-0.58 3.66v0c0 1.287 0.187 2.537 0.56 3.75 0.373 1.213 0.917 2.29 1.63 3.23 0.707 0.947 1.567 1.703 2.58 2.27 1.02 0.573 2.18 0.86 3.48 0.86zM66.14 0v-39.11h4.64v39.11zM79.37-8.69v-17.19h4.64v16.41c0 0.893 0.127 1.71 0.38 2.45 0.253 0.74 0.603 1.38 1.05 1.92 0.447 0.533 0.983 0.947 1.61 1.24 0.627 0.293 1.323 0.44 2.09 0.44v0c0.667 0 1.32-0.113 1.96-0.34 0.647-0.227 1.267-0.523 1.86-0.89 0.593-0.367 1.153-0.79 1.68-1.27 0.527-0.48 1.02-0.98 1.48-1.5v0-18.46h4.64v25.88h-3.62l-0.78-4.44c-0.6 0.553-1.243 1.117-1.93 1.69-0.68 0.58-1.407 1.11-2.18 1.59-0.773 0.48-1.593 0.873-2.46 1.18-0.86 0.313-1.763 0.47-2.71 0.47v0c-1.107 0-2.127-0.22-3.06-0.66-0.933-0.44-1.747-1.063-2.44-1.87-0.693-0.807-1.233-1.773-1.62-2.9-0.393-1.133-0.59-2.383-0.59-3.75zM111.62-6.49v-15.68h-5.22l0.39-2.39c1.267-0.26 2.283-0.59 3.05-0.99 0.767-0.4 1.397-0.9 1.89-1.5 0.5-0.6 0.917-1.33 1.25-2.19 0.333-0.853 0.71-1.873 1.13-3.06v0h2.15v6.42h9.37l-0.97 3.71h-8.4v14.46c0 0.78 0.117 1.44 0.35 1.98 0.24 0.547 0.57 0.993 0.99 1.34 0.427 0.34 0.94 0.587 1.54 0.74 0.6 0.153 1.267 0.23 2 0.23v0c0.753 0 1.5-0.07 2.24-0.21 0.74-0.133 1.443-0.323 2.11-0.57v0 2.64c-1.027 0.667-2.107 1.173-3.24 1.52-1.127 0.353-2.277 0.53-3.45 0.53v0c-1.093 0-2.08-0.157-2.96-0.47-0.873-0.307-1.623-0.753-2.25-1.34-0.627-0.587-1.113-1.313-1.46-2.18-0.34-0.873-0.51-1.87-0.51-2.99zM132.59 0v-25.88h4.64v25.88zM134.94-31.49v0c-0.407 0-0.79-0.073-1.15-0.22-0.36-0.147-0.67-0.35-0.93-0.61-0.26-0.26-0.463-0.567-0.61-0.92-0.147-0.347-0.22-0.733-0.22-1.16v0c0-0.42 0.083-0.82 0.25-1.2 0.16-0.373 0.373-0.697 0.64-0.97 0.273-0.28 0.59-0.497 0.95-0.65 0.367-0.153 0.753-0.23 1.16-0.23v0c0.393 0 0.767 0.077 1.12 0.23 0.347 0.153 0.65 0.37 0.91 0.65 0.26 0.273 0.463 0.593 0.61 0.96 0.147 0.367 0.22 0.753 0.22 1.16v0c0 0.44-0.08 0.843-0.24 1.21-0.167 0.367-0.383 0.677-0.65 0.93-0.267 0.253-0.58 0.453-0.94 0.6-0.36 0.147-0.733 0.22-1.12 0.22zM156.4 0.49v0c-1.92 0-3.63-0.343-5.13-1.03-1.5-0.68-2.767-1.6-3.8-2.76-1.033-1.153-1.823-2.5-2.37-4.04-0.54-1.533-0.81-3.157-0.81-4.87v0c0-1.953 0.343-3.787 1.03-5.5 0.693-1.72 1.657-3.223 2.89-4.51 1.227-1.287 2.687-2.3 4.38-3.04 1.693-0.74 3.533-1.11 5.52-1.11v0c1.933 0 3.657 0.347 5.17 1.04 1.513 0.693 2.787 1.627 3.82 2.8 1.033 1.167 1.82 2.52 2.36 4.06 0.533 1.54 0.8 3.157 0.8 4.85v0c0 1.967-0.35 3.81-1.05 5.53-0.7 1.713-1.667 3.207-2.9 4.48-1.24 1.267-2.707 2.267-4.4 3-1.687 0.733-3.523 1.1-5.51 1.1zM157.42-3.22v0c1.187 0 2.267-0.24 3.24-0.72 0.967-0.48 1.797-1.137 2.49-1.97 0.687-0.827 1.223-1.807 1.61-2.94 0.38-1.133 0.57-2.35 0.57-3.65v0c0-1.287-0.187-2.537-0.56-3.75-0.373-1.213-0.913-2.293-1.62-3.24-0.713-0.953-1.58-1.72-2.6-2.3-1.027-0.58-2.183-0.87-3.47-0.87v0c-1.187 0-2.263 0.24-3.23 0.72-0.973 0.48-1.807 1.14-2.5 1.98-0.687 0.84-1.223 1.83-1.61 2.97-0.38 1.14-0.57 2.36-0.57 3.66v0c0 1.287 0.187 2.537 0.56 3.75 0.373 1.213 0.913 2.29 1.62 3.23 0.713 0.947 1.577 1.703 2.59 2.27 1.02 0.573 2.18 0.86 3.48 0.86zM177.25 0v-25.88h3.61l0.73 4.49c0.573-0.533 1.223-1.093 1.95-1.68 0.733-0.587 1.53-1.123 2.39-1.61 0.853-0.493 1.76-0.897 2.72-1.21 0.96-0.32 1.943-0.48 2.95-0.48v0c1.187 0 2.257 0.23 3.21 0.69 0.953 0.453 1.767 1.09 2.44 1.91 0.68 0.827 1.203 1.803 1.57 2.93 0.367 1.133 0.55 2.367 0.55 3.7v0 17.14h-4.64v-16.7c0-0.947-0.137-1.78-0.41-2.5-0.267-0.727-0.637-1.33-1.11-1.81-0.473-0.48-1.033-0.84-1.68-1.08-0.653-0.247-1.363-0.37-2.13-0.37v0c-1.347 0-2.623 0.357-3.83 1.07-1.207 0.72-2.437 1.667-3.69 2.84v0 18.55zM206.35-1.17l0.97-3.91 0.44-0.29c0.62 0.34 1.273 0.643 1.96 0.91 0.68 0.273 1.353 0.5 2.02 0.68 0.667 0.173 1.323 0.31 1.97 0.41 0.64 0.1 1.237 0.15 1.79 0.15v0c0.767 0 1.467-0.09 2.1-0.27 0.633-0.18 1.177-0.433 1.63-0.76 0.447-0.327 0.797-0.717 1.05-1.17 0.247-0.453 0.37-0.957 0.37-1.51v0c0-0.7-0.193-1.283-0.58-1.75-0.393-0.467-0.907-0.867-1.54-1.2-0.633-0.333-1.357-0.62-2.17-0.86-0.813-0.247-1.643-0.5-2.49-0.76-0.847-0.26-1.677-0.553-2.49-0.88-0.813-0.327-1.54-0.737-2.18-1.23-0.633-0.5-1.143-1.103-1.53-1.81-0.393-0.707-0.59-1.573-0.59-2.6v0c0-1.14 0.253-2.217 0.76-3.23 0.5-1.02 1.207-1.907 2.12-2.66 0.913-0.76 2.007-1.36 3.28-1.8 1.28-0.44 2.7-0.66 4.26-0.66v0c0.38 0 0.83 0.017 1.35 0.05 0.52 0.033 1.073 0.087 1.66 0.16 0.587 0.073 1.183 0.17 1.79 0.29 0.613 0.127 1.203 0.277 1.77 0.45v0l-0.97 3.81-0.59 0.35c-0.453-0.247-0.953-0.46-1.5-0.64-0.547-0.18-1.1-0.323-1.66-0.43-0.56-0.107-1.11-0.187-1.65-0.24-0.54-0.06-1.013-0.09-1.42-0.09v0c-0.747 0-1.423 0.083-2.03 0.25-0.613 0.16-1.14 0.39-1.58 0.69-0.44 0.307-0.78 0.673-1.02 1.1-0.247 0.433-0.37 0.927-0.37 1.48v0c0 0.713 0.197 1.307 0.59 1.78 0.387 0.473 0.907 0.877 1.56 1.21 0.647 0.333 1.383 0.623 2.21 0.87 0.82 0.24 1.66 0.49 2.52 0.75 0.867 0.26 1.71 0.553 2.53 0.88 0.82 0.327 1.557 0.743 2.21 1.25 0.653 0.5 1.173 1.113 1.56 1.84 0.393 0.727 0.59 1.61 0.59 2.65v0c0 1.22-0.273 2.343-0.82 3.37-0.547 1.027-1.297 1.913-2.25 2.66-0.947 0.747-2.06 1.33-3.34 1.75-1.28 0.413-2.65 0.62-4.11 0.62v0c-1.253 0-2.593-0.147-4.02-0.44-1.427-0.293-2.813-0.7-4.16-1.22z" fill="#000000" fill-rule="nonzero" stroke="none" stroke-width="1" stroke-linecap="butt" stroke-linejoin="miter" stroke-miterlimit="10" stroke-dasharray="" stroke-dashoffset="0" font-family="none" font-weight="none" font-size="none" text-anchor="none" style="mix-blend-mode: normal" data-fill-palette-color="primary" opacity="1"></path></g></svg></g></svg></g></svg></g></svg></g><g transform="matrix(1,0,0,1,0,0.34335727378258696)"><svg viewBox="0 0 176.58374080247347 137.34290951303493" height="137.34290951303493" width="176.58374080247347"><g><svg xmlns:x="http://ns.adobe.com/Extensibility/1.0/" xmlns:i="http://ns.adobe.com/AdobeIllustrator/10.0/" xmlns:graph="http://ns.adobe.com/Graphs/1.0/" xmlns="http://www.w3.org/2000/svg" xmlns:xlink="http://www.w3.org/1999/xlink" version="1.1" x="0" y="0" viewBox="5 11 54 42" enable-background="new 0 0 64 64" xml:space="preserve" height="137.34290951303493" width="176.58374080247347" class="icon-icon-0" data-fill-palette-color="accent" id="icon-0"><g fill="#000000" data-fill-palette-color="accent"><g fill="#000000" data-fill-palette-color="accent"><path d="M11 39h42V17H11V39zM37.293 26.707c-0.391-0.391-0.391-1.023 0-1.414s1.023-0.391 1.414 0l2 2c0.391 0.391 0.391 1.023 0 1.414l-2 2C38.512 30.902 38.256 31 38 31s-0.512-0.098-0.707-0.293c-0.391-0.391-0.391-1.023 0-1.414L38.586 28 37.293 26.707zM29.105 31.553l4-8c0.248-0.494 0.848-0.694 1.342-0.447s0.694 0.848 0.447 1.342l-4 8C30.719 32.798 30.366 33 29.999 33c-0.15 0-0.303-0.034-0.446-0.105C29.059 32.647 28.858 32.047 29.105 31.553zM23.293 27.293l2-2c0.391-0.391 1.023-0.391 1.414 0s0.391 1.023 0 1.414L25.414 28l1.293 1.293c0.391 0.391 0.391 1.023 0 1.414C26.512 30.902 26.256 31 26 31s-0.512-0.098-0.707-0.293l-2-2C22.902 28.316 22.902 27.684 23.293 27.293z" fill="#000000" data-fill-palette-color="accent"></path><path d="M58 11H6c-0.552 0-1 0.448-1 1v32c0 0.553 0.448 1 1 1h25v6h-7c-0.552 0-1 0.447-1 1s0.448 1 1 1h16c0.553 0 1-0.447 1-1s-0.447-1-1-1h-7v-6h25c0.553 0 1-0.447 1-1V12C59 11.448 58.553 11 58 11zM55 40c0 0.553-0.447 1-1 1H10c-0.552 0-1-0.447-1-1V16c0-0.552 0.448-1 1-1h44c0.553 0 1 0.448 1 1V40z" fill="#000000" data-fill-palette-color="accent"></path></g></g></svg><g></g></g></svg></g></svg></g><defs></defs></svg><rect width="395.52" height="89.78727931076106" fill="none" stroke="none" visibility="hidden"></rect></g></svg></g></svg>